<svg width="493" height="59" viewBox="0 0 493 59" fill="none" xmlns="http://www.w3.org/2000/svg">
<line x1="156.553" y1="58.4697" x2="172.413" y2="0.603719" stroke="white" stroke-width="3"/>
<g clip-path="url(#clip0_49_7)">
<path d="M11.8427 24.4494C9.32963 21.9364 5.25488 21.9364 2.74177 24.4494C0.228655 26.9625 0.228655 31.0373 2.74177 33.5504C5.25488 36.0635 9.32963 36.0635 11.8427 33.5504C14.3558 31.0373 14.3558 26.9625 11.8427 24.4494ZM7.29225 34.2912C5.88891 34.2912 4.54305 33.7337 3.55074 32.7414C2.55843 31.7491 2.00096 30.4033 2.00096 28.9999C2.00096 27.5966 2.55843 26.2507 3.55074 25.2584C4.54305 24.2661 5.88891 23.7086 7.29225 23.7086C8.69559 23.7086 10.0414 24.2661 11.0337 25.2584C12.026 26.2507 12.5835 27.5966 12.5835 28.9999C12.5835 30.4033 12.026 31.7491 11.0337 32.7414C10.0414 33.7337 8.69559 34.2912 7.29225 34.2912ZM7.78688 30.199C7.94413 30.1307 8.08615 30.0316 8.20461 29.9077C8.43702 29.6645 8.565 29.3401 8.56116 29.0037C8.55731 28.6674 8.42195 28.3459 8.18404 28.1081C7.94613 27.8703 7.62459 27.7351 7.28824 27.7314C6.95189 27.7277 6.62746 27.8559 6.38442 28.0884C6.26054 28.2069 6.16158 28.349 6.09337 28.5063C6.02515 28.6636 5.98905 28.8329 5.98718 29.0043C5.9853 29.1758 6.0177 29.3459 6.08246 29.5046C6.14722 29.6633 6.24304 29.8075 6.3643 29.9287C6.48556 30.0499 6.62981 30.1457 6.78858 30.2104C6.94735 30.2751 7.11745 30.3074 7.28888 30.3054C7.46031 30.3034 7.62962 30.2673 7.78688 30.199ZM21.5504 43.2581C24.0635 40.745 24.0635 36.6702 21.5504 34.1571C19.0373 31.644 14.9625 31.644 12.4494 34.1571C9.93636 36.6702 9.93636 40.745 12.4494 43.2581C14.9625 45.7712 19.0373 45.7712 21.5504 43.2581ZM16.9999 43.9989C15.5966 43.9989 14.2507 43.4414 13.2584 42.4491C12.2661 41.4568 11.7086 40.111 11.7086 38.7076C11.7086 37.3043 12.2661 35.9584 13.2584 34.9661C14.2507 33.9738 15.5966 33.4163 16.9999 33.4163C18.4033 33.4163 19.7491 33.9738 20.7414 34.9661C21.7337 35.9584 22.2912 37.3043 22.2912 38.7076C22.2912 40.111 21.7337 41.4568 20.7414 42.4491C19.7491 43.4414 18.4033 43.9989 16.9999 43.9989ZM17.4945 39.9067C17.6518 39.8384 17.7938 39.7393 17.9123 39.6154C18.1447 39.3722 18.2727 39.0478 18.2688 38.7114C18.265 38.3751 18.1296 38.0536 17.8917 37.8158C17.6538 37.578 17.3323 37.4428 16.9959 37.4391C16.6596 37.4354 16.3351 37.5636 16.0921 37.7961C15.9682 37.9146 15.8693 38.0567 15.801 38.214C15.7328 38.3713 15.6967 38.5406 15.6948 38.7121C15.693 38.8835 15.7254 39.0536 15.7901 39.2123C15.8549 39.371 15.9507 39.5152 16.072 39.6364C16.1932 39.7576 16.3375 39.8534 16.4962 39.9181C16.655 39.9828 16.8251 40.0151 16.9965 40.0131C17.168 40.0111 17.3373 39.975 17.4945 39.9067ZM21.5504 14.7418C19.0373 12.2287 14.9625 12.2287 12.4494 14.7418C9.93636 17.2549 9.93636 21.3296 12.4494 23.8427C14.9625 26.3558 19.0373 26.3558 21.5504 23.8427C24.0635 21.3296 24.0635 17.2549 21.5504 14.7418ZM16.9999 24.5835C15.5966 24.5835 14.2507 24.026 13.2584 23.0337C12.2661 22.0414 11.7086 20.6956 11.7086 19.2923C11.7086 17.8889 12.2661 16.5431 13.2584 15.5507C14.2507 14.5584 15.5966 14.001 16.9999 14.001C18.4033 14.001 19.7491 14.5584 20.7414 15.5507C21.7337 16.5431 22.2912 17.8889 22.2912 19.2923C22.2912 20.6956 21.7337 22.0414 20.7414 23.0337C19.7491 24.026 18.4033 24.5835 16.9999 24.5835ZM17.4945 20.4913C17.6518 20.423 17.7938 20.324 17.9123 20.2C18.1447 19.9569 18.2727 19.6324 18.2688 19.296C18.265 18.9597 18.1296 18.6382 17.8917 18.4004C17.6538 18.1626 17.3323 18.0274 16.9959 18.0238C16.6596 18.0201 16.3351 18.1482 16.0921 18.3808C15.9682 18.4993 15.8693 18.6414 15.801 18.7986C15.7328 18.9559 15.6967 19.1253 15.6948 19.2967C15.693 19.4681 15.7254 19.6382 15.7901 19.7969C15.8549 19.9557 15.9507 20.0999 16.072 20.2211C16.1932 20.3423 16.3375 20.438 16.4962 20.5027C16.655 20.5674 16.8251 20.5997 16.9965 20.5977C17.168 20.5958 17.3373 20.5596 17.4945 20.4913ZM31.2581 24.4494C28.745 21.9364 24.6702 21.9364 22.1571 24.4494C19.644 26.9625 19.644 31.0373 22.1571 33.5504C24.6702 36.0635 28.745 36.0635 31.2581 33.5504C33.7712 31.0373 33.7712 26.9625 31.2581 24.4494ZM26.7076 34.2912C25.3043 34.2912 23.9584 33.7337 22.9661 32.7414C21.9738 31.7491 21.4163 30.4033 21.4163 28.9999C21.4163 27.5966 21.9738 26.2507 22.9661 25.2584C23.9584 24.2661 25.3043 23.7086 26.7076 23.7086C28.111 23.7086 29.4568 24.2661 30.4491 25.2584C31.4414 26.2507 31.9989 27.5966 31.9989 28.9999C31.9989 30.4033 31.4414 31.7491 30.4491 32.7414C29.4568 33.7337 28.111 34.2912 26.7076 34.2912ZM27.2022 30.199C27.3595 30.1307 27.5015 30.0316 27.62 29.9077C27.8524 29.6645 27.9804 29.3401 27.9765 29.0037C27.9727 28.6674 27.8373 28.3459 27.5994 28.1081C27.3615 27.8703 27.04 27.7351 26.7036 27.7314C26.3673 27.7277 26.0428 27.8559 25.7998 28.0884C25.6759 28.2069 25.577 28.349 25.5087 28.5063C25.4405 28.6636 25.4044 28.8329 25.4025 29.0043C25.4007 29.1758 25.4331 29.3459 25.4978 29.5046C25.5626 29.6633 25.6584 29.8075 25.7797 29.9287C25.9009 30.0499 26.0452 30.1457 26.204 30.2104C26.3627 30.2751 26.5328 30.3074 26.7043 30.3054C26.8757 30.3034 27.045 30.2673 27.2022 30.199Z" fill="white" stroke="white" stroke-width="0.286016"/>
<path d="M44.48 28.0002V13.4202H55.26V16.4802H47.48L48.06 15.9002V20.2202L47.48 19.6402H54.46V22.5202H47.48L48.06 21.9402V28.0002H44.48ZM61.3767 28.2002C60.5501 28.2002 59.8034 28.0802 59.1367 27.8402C58.4701 27.5869 57.8901 27.2202 57.3967 26.7402C56.9167 26.2469 56.5434 25.6535 56.2767 24.9602C56.0234 24.2669 55.8967 23.4802 55.8967 22.6002C55.8967 21.4802 56.1101 20.5069 56.5367 19.6802C56.9634 18.8402 57.5834 18.1869 58.3967 17.7202C59.2234 17.2402 60.2167 17.0002 61.3767 17.0002C62.2034 17.0002 62.9501 17.1269 63.6167 17.3802C64.2834 17.6202 64.8567 17.9869 65.3367 18.4802C65.8167 18.9602 66.1834 19.5469 66.4367 20.2402C66.7034 20.9202 66.8367 21.7069 66.8367 22.6002C66.8367 23.7069 66.6234 24.6802 66.1967 25.5202C65.7701 26.3602 65.1501 27.0202 64.3367 27.5002C63.5234 27.9669 62.5367 28.2002 61.3767 28.2002ZM61.3767 25.4602C61.7901 25.4602 62.1501 25.3602 62.4567 25.1602C62.7634 24.9602 63.0034 24.6469 63.1767 24.2202C63.3501 23.7935 63.4367 23.2535 63.4367 22.6002C63.4367 22.1069 63.3834 21.6802 63.2767 21.3202C63.1834 20.9469 63.0434 20.6469 62.8567 20.4202C62.6834 20.1802 62.4701 20.0069 62.2167 19.9002C61.9767 19.7802 61.6967 19.7202 61.3767 19.7202C60.9634 19.7202 60.5967 19.8269 60.2767 20.0402C59.9701 20.2402 59.7301 20.5536 59.5567 20.9802C59.3967 21.3936 59.3167 21.9336 59.3167 22.6002C59.3167 23.0935 59.3634 23.5269 59.4567 23.9002C59.5501 24.2602 59.6834 24.5602 59.8567 24.8002C60.0434 25.0269 60.2634 25.1935 60.5167 25.3002C60.7834 25.4069 61.0701 25.4602 61.3767 25.4602ZM68.2475 28.0002V17.2002H71.3075L71.4475 18.8402H71.5675C71.8075 18.1602 72.1808 17.6936 72.6875 17.4402C73.2075 17.1869 73.7942 17.0602 74.4475 17.0602C74.5675 17.0602 74.6742 17.0602 74.7675 17.0602C74.8742 17.0602 74.9742 17.0602 75.0675 17.0602V20.2402C74.9875 20.2402 74.8875 20.2402 74.7675 20.2402C74.6608 20.2269 74.5342 20.2202 74.3875 20.2202C73.7075 20.2202 73.1675 20.3202 72.7675 20.5202C72.3675 20.7069 72.0808 20.9802 71.9075 21.3402C71.7342 21.6869 71.6408 22.1202 71.6275 22.6402V28.0002H68.2475ZM86.7708 28.2002C85.6241 28.2002 84.5974 28.0202 83.6908 27.6602C82.7974 27.3002 82.0374 26.7935 81.4108 26.1402C80.7974 25.4735 80.3241 24.6802 79.9908 23.7602C79.6708 22.8402 79.5108 21.8202 79.5108 20.7002C79.5108 19.5002 79.6841 18.4402 80.0308 17.5202C80.3908 16.6002 80.8974 15.8202 81.5508 15.1802C82.2041 14.5402 82.9841 14.0536 83.8908 13.7202C84.8108 13.3869 85.8241 13.2202 86.9308 13.2202C88.2641 13.2202 89.4241 13.4402 90.4108 13.8802C91.3974 14.3069 92.1774 14.9069 92.7508 15.6802C93.3241 16.4402 93.6641 17.3336 93.7708 18.3602H90.0708C89.9774 17.9202 89.7908 17.5469 89.5108 17.2402C89.2308 16.9336 88.8708 16.7002 88.4308 16.5402C88.0041 16.3669 87.5041 16.2802 86.9308 16.2802C86.1841 16.2802 85.5241 16.4402 84.9508 16.7602C84.3908 17.0669 83.9574 17.5469 83.6508 18.2002C83.3441 18.8536 83.1908 19.6869 83.1908 20.7002C83.1908 21.4602 83.2708 22.1269 83.4308 22.7002C83.6041 23.2735 83.8508 23.7469 84.1708 24.1202C84.4908 24.4802 84.8774 24.7535 85.3308 24.9402C85.7841 25.1269 86.2841 25.2202 86.8308 25.2202C87.5774 25.2202 88.2108 25.0935 88.7308 24.8402C89.2641 24.5869 89.6708 24.2269 89.9508 23.7602C90.2441 23.2935 90.3908 22.7402 90.3908 22.1002V21.5402L91.3308 22.6602H86.6908V20.1402H94.0108V21.7202C94.0108 22.6935 93.8374 23.5802 93.4908 24.3802C93.1441 25.1802 92.6508 25.8602 92.0108 26.4202C91.3841 26.9802 90.6241 27.4202 89.7308 27.7402C88.8508 28.0469 87.8641 28.2002 86.7708 28.2002ZM100.47 28.2002C99.643 28.2002 98.8964 28.0802 98.2297 27.8402C97.563 27.5869 96.983 27.2202 96.4897 26.7402C96.0097 26.2469 95.6364 25.6535 95.3697 24.9602C95.1164 24.2669 94.9897 23.4802 94.9897 22.6002C94.9897 21.4802 95.203 20.5069 95.6297 19.6802C96.0564 18.8402 96.6764 18.1869 97.4897 17.7202C98.3164 17.2402 99.3097 17.0002 100.47 17.0002C101.296 17.0002 102.043 17.1269 102.71 17.3802C103.376 17.6202 103.95 17.9869 104.43 18.4802C104.91 18.9602 105.276 19.5469 105.53 20.2402C105.796 20.9202 105.93 21.7069 105.93 22.6002C105.93 23.7069 105.716 24.6802 105.29 25.5202C104.863 26.3602 104.243 27.0202 103.43 27.5002C102.616 27.9669 101.63 28.2002 100.47 28.2002ZM100.47 25.4602C100.883 25.4602 101.243 25.3602 101.55 25.1602C101.856 24.9602 102.096 24.6469 102.27 24.2202C102.443 23.7935 102.53 23.2535 102.53 22.6002C102.53 22.1069 102.476 21.6802 102.37 21.3202C102.276 20.9469 102.136 20.6469 101.95 20.4202C101.776 20.1802 101.563 20.0069 101.31 19.9002C101.07 19.7802 100.79 19.7202 100.47 19.7202C100.056 19.7202 99.6897 19.8269 99.3697 20.0402C99.063 20.2402 98.823 20.5536 98.6497 20.9802C98.4897 21.3936 98.4097 21.9336 98.4097 22.6002C98.4097 23.0935 98.4564 23.5269 98.5497 23.9002C98.643 24.2602 98.7764 24.5602 98.9497 24.8002C99.1364 25.0269 99.3564 25.1935 99.6097 25.3002C99.8764 25.4069 100.163 25.4602 100.47 25.4602ZM112.416 28.2002C111.589 28.2002 110.842 28.0802 110.176 27.8402C109.509 27.5869 108.929 27.2202 108.436 26.7402C107.956 26.2469 107.582 25.6535 107.316 24.9602C107.062 24.2669 106.936 23.4802 106.936 22.6002C106.936 21.4802 107.149 20.5069 107.576 19.6802C108.002 18.8402 108.622 18.1869 109.436 17.7202C110.262 17.2402 111.256 17.0002 112.416 17.0002C113.242 17.0002 113.989 17.1269 114.656 17.3802C115.322 17.6202 115.896 17.9869 116.376 18.4802C116.856 18.9602 117.222 19.5469 117.476 20.2402C117.742 20.9202 117.876 21.7069 117.876 22.6002C117.876 23.7069 117.662 24.6802 117.236 25.5202C116.809 26.3602 116.189 27.0202 115.376 27.5002C114.562 27.9669 113.576 28.2002 112.416 28.2002ZM112.416 25.4602C112.829 25.4602 113.189 25.3602 113.496 25.1602C113.802 24.9602 114.042 24.6469 114.216 24.2202C114.389 23.7935 114.476 23.2535 114.476 22.6002C114.476 22.1069 114.422 21.6802 114.316 21.3202C114.222 20.9469 114.082 20.6469 113.896 20.4202C113.722 20.1802 113.509 20.0069 113.256 19.9002C113.016 19.7802 112.736 19.7202 112.416 19.7202C112.002 19.7202 111.636 19.8269 111.316 20.0402C111.009 20.2402 110.769 20.5536 110.596 20.9802C110.436 21.3936 110.356 21.9336 110.356 22.6002C110.356 23.0935 110.402 23.5269 110.496 23.9002C110.589 24.2602 110.722 24.5602 110.896 24.8002C111.082 25.0269 111.302 25.1935 111.556 25.3002C111.822 25.4069 112.109 25.4602 112.416 25.4602ZM123.142 28.2002C122.502 28.2002 121.922 28.0869 121.402 27.8602C120.882 27.6202 120.429 27.2669 120.042 26.8002C119.669 26.3335 119.382 25.7535 119.182 25.0602C118.982 24.3535 118.882 23.5335 118.882 22.6002C118.882 21.3469 119.055 20.3069 119.402 19.4802C119.762 18.6402 120.262 18.0202 120.902 17.6202C121.542 17.2069 122.289 17.0002 123.142 17.0002C123.689 17.0002 124.175 17.0802 124.602 17.2402C125.042 17.4002 125.415 17.6269 125.722 17.9202C126.042 18.2136 126.289 18.5602 126.462 18.9602H126.642V13.4202H130.022L130.002 28.0002H126.762L126.642 26.2402H126.462C126.209 26.8269 125.795 27.3002 125.222 27.6602C124.649 28.0202 123.955 28.2002 123.142 28.2002ZM124.462 25.4802C124.969 25.4802 125.375 25.3669 125.682 25.1402C125.989 24.9002 126.215 24.6002 126.362 24.2402C126.522 23.8669 126.602 23.4802 126.602 23.0802V22.1202C126.602 21.8002 126.555 21.5002 126.462 21.2202C126.382 20.9402 126.255 20.6869 126.082 20.4602C125.922 20.2336 125.702 20.0536 125.422 19.9202C125.155 19.7869 124.835 19.7202 124.462 19.7202C124.035 19.7202 123.662 19.8202 123.342 20.0202C123.022 20.2202 122.769 20.5336 122.582 20.9602C122.409 21.3736 122.322 21.9202 122.322 22.6002C122.322 23.2669 122.409 23.8135 122.582 24.2402C122.769 24.6669 123.022 24.9802 123.342 25.1802C123.662 25.3802 124.035 25.4802 124.462 25.4802Z" fill="white"/>
<path d="M44.48 44.9999V30.4199H55.26V33.4799H47.48L48.06 32.8999V37.2199L47.48 36.6399H54.46V39.5199H47.48L48.06 38.9399V44.9999H44.48ZM56.5944 44.9999V34.1999H59.9744V44.9999H56.5944ZM56.5944 32.9399V30.4199H59.9744V32.9399H56.5944ZM62.017 44.9999V34.1999H65.077L65.217 35.8399H65.337C65.577 35.1599 65.9504 34.6932 66.457 34.4399C66.977 34.1866 67.5637 34.0599 68.217 34.0599C68.337 34.0599 68.4437 34.0599 68.537 34.0599C68.6437 34.0599 68.7437 34.0599 68.837 34.0599V37.2399C68.757 37.2399 68.657 37.2399 68.537 37.2399C68.4304 37.2266 68.3037 37.2199 68.157 37.2199C67.477 37.2199 66.937 37.3199 66.537 37.5199C66.137 37.7066 65.8504 37.9799 65.677 38.3399C65.5037 38.6866 65.4104 39.1199 65.397 39.6399V44.9999H62.017ZM74.3025 45.1999C72.6892 45.1999 71.4425 44.8666 70.5625 44.1999C69.6825 43.5332 69.2492 42.6599 69.2625 41.5799H72.6025C72.6158 42.0732 72.7892 42.4266 73.1225 42.6399C73.4692 42.8399 73.8892 42.9399 74.3825 42.9399C74.9158 42.9399 75.3092 42.8532 75.5625 42.6799C75.8292 42.5066 75.9625 42.2799 75.9625 41.9999C75.9625 41.7066 75.8892 41.4932 75.7425 41.3599C75.5958 41.2132 75.3692 41.1066 75.0625 41.0399C74.7692 40.9732 74.3892 40.9132 73.9225 40.8599C73.3358 40.7666 72.7758 40.6599 72.2425 40.5399C71.7225 40.4066 71.2625 40.2199 70.8625 39.9799C70.4625 39.7399 70.1425 39.4199 69.9025 39.0199C69.6625 38.6199 69.5425 38.1132 69.5425 37.4999C69.5425 36.7132 69.7492 36.0599 70.1625 35.5399C70.5758 35.0199 71.1425 34.6332 71.8625 34.3799C72.5958 34.1266 73.4492 33.9999 74.4225 33.9999C75.3692 33.9999 76.1892 34.1399 76.8825 34.4199C77.5892 34.6866 78.1358 35.0732 78.5225 35.5799C78.9092 36.0866 79.1158 36.6999 79.1425 37.4199H75.8425C75.8292 37.1666 75.7625 36.9599 75.6425 36.7999C75.5225 36.6266 75.3492 36.4932 75.1225 36.3999C74.9092 36.3066 74.6425 36.2599 74.3225 36.2599C73.8558 36.2599 73.5025 36.3466 73.2625 36.5199C73.0358 36.6799 72.9225 36.8932 72.9225 37.1599C72.9225 37.3866 72.9958 37.5732 73.1425 37.7199C73.2892 37.8532 73.5158 37.9599 73.8225 38.0399C74.1292 38.1066 74.5225 38.1732 75.0025 38.2399C75.5625 38.3066 76.1025 38.3999 76.6225 38.5199C77.1425 38.6399 77.6092 38.8132 78.0225 39.0399C78.4358 39.2666 78.7625 39.5932 79.0025 40.0199C79.2558 40.4466 79.3825 40.9999 79.3825 41.6799C79.3825 42.9066 78.9292 43.7999 78.0225 44.3599C77.1292 44.9199 75.8892 45.1999 74.3025 45.1999ZM84.6902 44.9999C83.8902 44.9999 83.2702 44.8866 82.8302 44.6599C82.4035 44.4199 82.1035 44.0866 81.9302 43.6599C81.7702 43.2332 81.6902 42.7332 81.6902 42.1599V36.9199H79.8302V34.1999H81.6902V31.3399L85.0702 31.0399V34.1999H87.1502V36.9199H85.0702V41.5399C85.0702 41.8332 85.1435 42.0332 85.2902 42.1399C85.4368 42.2332 85.6368 42.2799 85.8902 42.2799H87.1502V44.9999H84.6902ZM92.7191 44.9999V30.4199H96.2991V44.9999H92.7191ZM103.122 45.1999C101.509 45.1999 100.262 44.8666 99.382 44.1999C98.502 43.5332 98.0687 42.6599 98.082 41.5799H101.422C101.435 42.0732 101.609 42.4266 101.942 42.6399C102.289 42.8399 102.709 42.9399 103.202 42.9399C103.735 42.9399 104.129 42.8532 104.382 42.6799C104.649 42.5066 104.782 42.2799 104.782 41.9999C104.782 41.7066 104.709 41.4932 104.562 41.3599C104.415 41.2132 104.189 41.1066 103.882 41.0399C103.589 40.9732 103.209 40.9132 102.742 40.8599C102.155 40.7666 101.595 40.6599 101.062 40.5399C100.542 40.4066 100.082 40.2199 99.682 39.9799C99.282 39.7399 98.962 39.4199 98.722 39.0199C98.482 38.6199 98.362 38.1132 98.362 37.4999C98.362 36.7132 98.5687 36.0599 98.982 35.5399C99.3954 35.0199 99.962 34.6332 100.682 34.3799C101.415 34.1266 102.269 33.9999 103.242 33.9999C104.189 33.9999 105.009 34.1399 105.702 34.4199C106.409 34.6866 106.955 35.0732 107.342 35.5799C107.729 36.0866 107.935 36.6999 107.962 37.4199H104.662C104.649 37.1666 104.582 36.9599 104.462 36.7999C104.342 36.6266 104.169 36.4932 103.942 36.3999C103.729 36.3066 103.462 36.2599 103.142 36.2599C102.675 36.2599 102.322 36.3466 102.082 36.5199C101.855 36.6799 101.742 36.8932 101.742 37.1599C101.742 37.3866 101.815 37.5732 101.962 37.7199C102.109 37.8532 102.335 37.9599 102.642 38.0399C102.949 38.1066 103.342 38.1732 103.822 38.2399C104.382 38.3066 104.922 38.3999 105.442 38.5199C105.962 38.6399 106.429 38.8132 106.842 39.0399C107.255 39.2666 107.582 39.5932 107.822 40.0199C108.075 40.4466 108.202 40.9999 108.202 41.6799C108.202 42.9066 107.749 43.7999 106.842 44.3599C105.949 44.9199 104.709 45.1999 103.122 45.1999ZM114.17 45.1999C112.556 45.1999 111.31 44.8666 110.43 44.1999C109.55 43.5332 109.116 42.6599 109.13 41.5799H112.47C112.483 42.0732 112.656 42.4266 112.99 42.6399C113.336 42.8399 113.756 42.9399 114.25 42.9399C114.783 42.9399 115.176 42.8532 115.43 42.6799C115.696 42.5066 115.83 42.2799 115.83 41.9999C115.83 41.7066 115.756 41.4932 115.61 41.3599C115.463 41.2132 115.236 41.1066 114.93 41.0399C114.636 40.9732 114.256 40.9132 113.79 40.8599C113.203 40.7666 112.643 40.6599 112.11 40.5399C111.59 40.4066 111.13 40.2199 110.73 39.9799C110.33 39.7399 110.01 39.4199 109.77 39.0199C109.53 38.6199 109.41 38.1132 109.41 37.4999C109.41 36.7132 109.616 36.0599 110.03 35.5399C110.443 35.0199 111.01 34.6332 111.73 34.3799C112.463 34.1266 113.316 33.9999 114.29 33.9999C115.236 33.9999 116.056 34.1399 116.75 34.4199C117.456 34.6866 118.003 35.0732 118.39 35.5799C118.776 36.0866 118.983 36.6999 119.01 37.4199H115.71C115.696 37.1666 115.63 36.9599 115.51 36.7999C115.39 36.6266 115.216 36.4932 114.99 36.3999C114.776 36.3066 114.51 36.2599 114.19 36.2599C113.723 36.2599 113.37 36.3466 113.13 36.5199C112.903 36.6799 112.79 36.8932 112.79 37.1599C112.79 37.3866 112.863 37.5732 113.01 37.7199C113.156 37.8532 113.383 37.9599 113.69 38.0399C113.996 38.1066 114.39 38.1732 114.87 38.2399C115.43 38.3066 115.97 38.3999 116.49 38.5199C117.01 38.6399 117.476 38.8132 117.89 39.0399C118.303 39.2666 118.63 39.5932 118.87 40.0199C119.123 40.4466 119.25 40.9999 119.25 41.6799C119.25 42.9066 118.796 43.7999 117.89 44.3599C116.996 44.9199 115.756 45.1999 114.17 45.1999ZM124.477 45.1999C123.637 45.1999 122.931 45.0399 122.357 44.7199C121.784 44.3866 121.351 43.9066 121.057 43.2799C120.777 42.6399 120.637 41.8732 120.637 40.9799V34.1999H124.017V40.0599C124.017 40.5799 124.077 41.0199 124.197 41.3799C124.331 41.7266 124.531 41.9932 124.797 42.1799C125.064 42.3666 125.411 42.4599 125.837 42.4599C126.277 42.4599 126.651 42.3532 126.957 42.1399C127.264 41.9266 127.497 41.6532 127.657 41.3199C127.817 40.9866 127.897 40.6266 127.897 40.2399V34.1999H131.277V44.9999H128.017L127.897 43.1199H127.757C127.491 43.7999 127.064 44.3199 126.477 44.6799C125.891 45.0266 125.224 45.1999 124.477 45.1999ZM137.895 45.1999C136.735 45.1999 135.749 44.9732 134.935 44.5199C134.122 44.0532 133.495 43.4066 133.055 42.5799C132.629 41.7532 132.415 40.7866 132.415 39.6799C132.415 38.5199 132.635 37.5132 133.075 36.6599C133.515 35.8066 134.135 35.1532 134.935 34.6999C135.749 34.2332 136.689 33.9999 137.755 33.9999C139.049 33.9999 140.102 34.2799 140.915 34.8399C141.729 35.3866 142.315 36.1399 142.675 37.0999C143.035 38.0599 143.149 39.1532 143.015 40.3799H135.735C135.735 40.8599 135.822 41.2732 135.995 41.6199C136.182 41.9532 136.435 42.2132 136.755 42.3999C137.075 42.5732 137.455 42.6599 137.895 42.6599C138.375 42.6599 138.782 42.5599 139.115 42.3599C139.462 42.1466 139.682 41.8732 139.775 41.5399H142.955C142.875 42.2599 142.609 42.8999 142.155 43.4599C141.702 44.0066 141.109 44.4332 140.375 44.7399C139.642 45.0466 138.815 45.1999 137.895 45.1999ZM135.735 38.6199L135.455 38.2999H140.015L139.695 38.5999C139.722 38.1466 139.655 37.7666 139.495 37.4599C139.335 37.1532 139.102 36.9199 138.795 36.7599C138.502 36.5999 138.155 36.5199 137.755 36.5199C137.342 36.5199 136.982 36.6066 136.675 36.7799C136.369 36.9532 136.135 37.1999 135.975 37.5199C135.815 37.8266 135.735 38.1932 135.735 38.6199Z" fill="white"/>
</g>
<path d="M206.727 25C206.477 24.2348 206.148 23.5492 205.739 22.9432C205.337 22.3295 204.856 21.8068 204.295 21.375C203.742 20.9432 203.114 20.6136 202.409 20.3864C201.705 20.1591 200.932 20.0455 200.091 20.0455C198.712 20.0455 197.458 20.4015 196.33 21.1136C195.201 21.8258 194.303 22.875 193.636 24.2614C192.97 25.6477 192.636 27.3485 192.636 29.3636C192.636 31.3788 192.973 33.0795 193.648 34.4659C194.322 35.8523 195.235 36.9015 196.386 37.6136C197.538 38.3258 198.833 38.6818 200.273 38.6818C201.606 38.6818 202.78 38.3977 203.795 37.8295C204.818 37.2538 205.614 36.4432 206.182 35.3977C206.758 34.3447 207.045 33.1061 207.045 31.6818L207.909 31.8636H200.909V29.3636H209.773V31.8636C209.773 33.7803 209.364 35.447 208.545 36.8636C207.735 38.2803 206.614 39.3788 205.182 40.1591C203.758 40.9318 202.121 41.3182 200.273 41.3182C198.212 41.3182 196.402 40.8333 194.841 39.8636C193.288 38.8939 192.076 37.5152 191.205 35.7273C190.341 33.9394 189.909 31.8182 189.909 29.3636C189.909 27.5227 190.155 25.8674 190.648 24.3977C191.148 22.9205 191.852 21.6629 192.761 20.625C193.67 19.5871 194.746 18.7917 195.989 18.2386C197.231 17.6856 198.598 17.4091 200.091 17.4091C201.318 17.4091 202.462 17.5947 203.523 17.9659C204.591 18.3295 205.542 18.8485 206.375 19.5227C207.216 20.1894 207.917 20.9886 208.477 21.9205C209.038 22.8447 209.424 23.8712 209.636 25H206.727ZM214.05 41V23.5455H216.731V41H214.05ZM215.413 20.6364C214.89 20.6364 214.44 20.4583 214.061 20.1023C213.69 19.7462 213.504 19.3182 213.504 18.8182C213.504 18.3182 213.69 17.8902 214.061 17.5341C214.44 17.178 214.89 17 215.413 17C215.936 17 216.383 17.178 216.754 17.5341C217.133 17.8902 217.322 18.3182 217.322 18.8182C217.322 19.3182 217.133 19.7462 216.754 20.1023C216.383 20.4583 215.936 20.6364 215.413 20.6364ZM227.954 23.5455V25.8182H218.909V23.5455H227.954ZM221.545 19.3636H224.227V36C224.227 36.7576 224.337 37.3258 224.556 37.7045C224.784 38.0758 225.072 38.3258 225.42 38.4545C225.776 38.5758 226.151 38.6364 226.545 38.6364C226.841 38.6364 227.083 38.6212 227.272 38.5909C227.462 38.553 227.613 38.5227 227.727 38.5L228.272 40.9091C228.091 40.9773 227.837 41.0455 227.511 41.1136C227.185 41.1894 226.772 41.2273 226.272 41.2273C225.515 41.2273 224.772 41.0644 224.045 40.7386C223.325 40.4129 222.727 39.9167 222.25 39.25C221.78 38.5833 221.545 37.7424 221.545 36.7273V19.3636ZM231.447 41V17.7273H234.265V28.0909H246.674V17.7273H249.492V41H246.674V30.5909H234.265V41H231.447ZM264.491 33.8636V23.5455H267.173V41H264.491V38.0455H264.309C263.9 38.9318 263.264 39.6856 262.4 40.3068C261.536 40.9205 260.445 41.2273 259.127 41.2273C258.036 41.2273 257.067 40.9886 256.218 40.5114C255.37 40.0265 254.703 39.2992 254.218 38.3295C253.733 37.3523 253.491 36.1212 253.491 34.6364V23.5455H256.173V34.4545C256.173 35.7273 256.529 36.7424 257.241 37.5C257.96 38.2576 258.877 38.6364 259.991 38.6364C260.657 38.6364 261.335 38.4659 262.025 38.125C262.722 37.7841 263.305 37.2614 263.775 36.5568C264.252 35.8523 264.491 34.9545 264.491 33.8636ZM271.168 41V17.7273H273.85V26.3182H274.077C274.274 26.0152 274.547 25.6288 274.895 25.1591C275.252 24.6818 275.759 24.2576 276.418 23.8864C277.085 23.5076 277.986 23.3182 279.123 23.3182C280.592 23.3182 281.888 23.6856 283.009 24.4205C284.13 25.1553 285.005 26.197 285.634 27.5455C286.263 28.8939 286.577 30.4848 286.577 32.3182C286.577 34.1667 286.263 35.7689 285.634 37.125C285.005 38.4735 284.134 39.5189 283.02 40.2614C281.907 40.9962 280.623 41.3636 279.168 41.3636C278.047 41.3636 277.149 41.178 276.475 40.8068C275.801 40.428 275.282 40 274.918 39.5227C274.555 39.0379 274.274 38.6364 274.077 38.3182H273.759V41H271.168ZM273.805 32.2727C273.805 33.5909 273.998 34.7538 274.384 35.7614C274.77 36.7614 275.335 37.5455 276.077 38.1136C276.82 38.6742 277.729 38.9545 278.805 38.9545C279.926 38.9545 280.861 38.6591 281.611 38.0682C282.369 37.4697 282.937 36.6667 283.316 35.6591C283.702 34.6439 283.895 33.5152 283.895 32.2727C283.895 31.0455 283.706 29.9394 283.327 28.9545C282.956 27.9621 282.392 27.178 281.634 26.6023C280.884 26.0189 279.941 25.7273 278.805 25.7273C277.714 25.7273 276.797 26.0038 276.055 26.5568C275.312 27.1023 274.752 27.8674 274.373 28.8523C273.994 29.8295 273.805 30.9697 273.805 32.2727ZM317.222 25.875H312.245C312.154 25.2311 311.968 24.6591 311.688 24.1591C311.407 23.6515 311.048 23.2197 310.608 22.8636C310.169 22.5076 309.661 22.2348 309.085 22.0455C308.517 21.8561 307.9 21.7614 307.233 21.7614C306.029 21.7614 304.979 22.0606 304.085 22.6591C303.192 23.25 302.498 24.1136 302.006 25.25C301.513 26.3788 301.267 27.75 301.267 29.3636C301.267 31.0227 301.513 32.4167 302.006 33.5455C302.506 34.6742 303.203 35.5265 304.097 36.1023C304.991 36.678 306.025 36.9659 307.199 36.9659C307.858 36.9659 308.468 36.8788 309.029 36.7045C309.597 36.5303 310.101 36.2765 310.54 35.9432C310.979 35.6023 311.343 35.1894 311.631 34.7045C311.926 34.2197 312.131 33.6667 312.245 33.0455L317.222 33.0682C317.093 34.1364 316.771 35.1667 316.256 36.1591C315.748 37.1439 315.063 38.0265 314.199 38.8068C313.343 39.5795 312.32 40.1932 311.131 40.6477C309.949 41.0947 308.612 41.3182 307.12 41.3182C305.044 41.3182 303.188 40.8485 301.551 39.9091C299.923 38.9697 298.635 37.6098 297.688 35.8295C296.748 34.0492 296.279 31.8939 296.279 29.3636C296.279 26.8258 296.756 24.6667 297.71 22.8864C298.665 21.1061 299.96 19.75 301.597 18.8182C303.233 17.8788 305.074 17.4091 307.12 17.4091C308.468 17.4091 309.718 17.5985 310.87 17.9773C312.029 18.3561 313.055 18.9091 313.949 19.6364C314.843 20.3561 315.57 21.2386 316.131 22.2841C316.699 23.3295 317.063 24.5265 317.222 25.875ZM324.357 41.3295C323.243 41.3295 322.251 41.1364 321.379 40.75C320.508 40.3561 319.819 39.7765 319.311 39.0114C318.811 38.2386 318.561 37.2765 318.561 36.125C318.561 35.1553 318.739 34.3409 319.095 33.6818C319.451 33.0227 319.936 32.4924 320.55 32.0909C321.163 31.6894 321.86 31.3864 322.641 31.1818C323.429 30.9773 324.254 30.8333 325.118 30.75C326.133 30.6439 326.951 30.5455 327.572 30.4545C328.194 30.3561 328.644 30.2121 328.925 30.0227C329.205 29.8333 329.345 29.553 329.345 29.1818V29.1136C329.345 28.3939 329.118 27.8371 328.663 27.4432C328.216 27.0492 327.58 26.8523 326.754 26.8523C325.883 26.8523 325.19 27.0455 324.675 27.4318C324.16 27.8106 323.819 28.2879 323.652 28.8636L319.175 28.5C319.402 27.4394 319.849 26.5227 320.516 25.75C321.182 24.9697 322.042 24.3712 323.095 23.9545C324.156 23.5303 325.383 23.3182 326.777 23.3182C327.747 23.3182 328.675 23.4318 329.561 23.6591C330.455 23.8864 331.247 24.2386 331.936 24.7159C332.633 25.1932 333.182 25.8068 333.584 26.5568C333.985 27.2992 334.186 28.1894 334.186 29.2273V41H329.595V38.5795H329.459C329.179 39.125 328.804 39.6061 328.334 40.0227C327.864 40.4318 327.3 40.7538 326.641 40.9886C325.982 41.2159 325.22 41.3295 324.357 41.3295ZM325.743 37.9886C326.455 37.9886 327.084 37.8485 327.629 37.5682C328.175 37.2803 328.603 36.8939 328.913 36.4091C329.224 35.9242 329.379 35.375 329.379 34.7614V32.9091C329.228 33.0076 329.019 33.0985 328.754 33.1818C328.497 33.2576 328.205 33.3295 327.879 33.3977C327.554 33.4583 327.228 33.5152 326.902 33.5682C326.576 33.6136 326.281 33.6553 326.016 33.6932C325.447 33.7765 324.951 33.9091 324.527 34.0909C324.103 34.2727 323.773 34.5189 323.538 34.8295C323.304 35.1326 323.186 35.5114 323.186 35.9659C323.186 36.625 323.425 37.1288 323.902 37.4773C324.387 37.8182 325.001 37.9886 325.743 37.9886ZM336.662 41V23.5455H341.275V26.625H341.48C341.844 25.6023 342.45 24.7955 343.298 24.2045C344.147 23.6136 345.162 23.3182 346.344 23.3182C347.541 23.3182 348.56 23.6174 349.4 24.2159C350.241 24.8068 350.802 25.6098 351.082 26.625H351.264C351.62 25.625 352.264 24.8258 353.196 24.2273C354.135 23.6212 355.245 23.3182 356.525 23.3182C358.154 23.3182 359.476 23.8371 360.491 24.875C361.514 25.9053 362.025 27.3674 362.025 29.2614V41H357.196V30.2159C357.196 29.2462 356.938 28.5189 356.423 28.0341C355.908 27.5492 355.264 27.3068 354.491 27.3068C353.613 27.3068 352.927 27.5871 352.435 28.1477C351.942 28.7008 351.696 29.4318 351.696 30.3409V41H347.003V30.1136C347.003 29.2576 346.757 28.5758 346.264 28.0682C345.779 27.5606 345.139 27.3068 344.344 27.3068C343.806 27.3068 343.321 27.4432 342.889 27.7159C342.465 27.9811 342.128 28.3561 341.878 28.8409C341.628 29.3182 341.503 29.8788 341.503 30.5227V41H336.662ZM364.569 47.5455V23.5455H369.342V26.4773H369.558C369.77 26.0076 370.077 25.5303 370.478 25.0455C370.887 24.553 371.418 24.1439 372.069 23.8182C372.728 23.4848 373.547 23.3182 374.524 23.3182C375.797 23.3182 376.971 23.6515 378.047 24.3182C379.122 24.9773 379.982 25.9735 380.626 27.3068C381.27 28.6326 381.592 30.2955 381.592 32.2955C381.592 34.2424 381.278 35.8864 380.649 37.2273C380.028 38.5606 379.179 39.572 378.103 40.2614C377.035 40.9432 375.838 41.2841 374.512 41.2841C373.573 41.2841 372.774 41.1288 372.115 40.8182C371.463 40.5076 370.929 40.1174 370.512 39.6477C370.096 39.1705 369.778 38.6894 369.558 38.2045H369.41V47.5455H364.569ZM369.308 32.2727C369.308 33.3106 369.452 34.2159 369.74 34.9886C370.028 35.7614 370.444 36.3636 370.99 36.7955C371.535 37.2197 372.198 37.4318 372.978 37.4318C373.766 37.4318 374.433 37.2159 374.978 36.7841C375.524 36.3447 375.937 35.7386 376.217 34.9659C376.505 34.1856 376.649 33.2879 376.649 32.2727C376.649 31.2652 376.509 30.3788 376.228 29.6136C375.948 28.8485 375.535 28.25 374.99 27.8182C374.444 27.3864 373.774 27.1705 372.978 27.1705C372.191 27.1705 371.524 27.3788 370.978 27.7955C370.441 28.2121 370.028 28.803 369.74 29.5682C369.452 30.3333 369.308 31.2348 369.308 32.2727ZM394.732 33.5682V23.5455H399.573V41H394.926V37.8295H394.744C394.35 38.8523 393.695 39.6742 392.778 40.2955C391.869 40.9167 390.759 41.2273 389.448 41.2273C388.282 41.2273 387.255 40.9621 386.369 40.4318C385.482 39.9015 384.789 39.1477 384.289 38.1705C383.797 37.1932 383.547 36.0227 383.539 34.6591V23.5455H388.38V33.7955C388.388 34.8258 388.664 35.6402 389.21 36.2386C389.755 36.8371 390.486 37.1364 391.403 37.1364C391.986 37.1364 392.532 37.0038 393.039 36.7386C393.547 36.4659 393.956 36.0644 394.267 35.5341C394.585 35.0038 394.74 34.3485 394.732 33.5682ZM416.688 28.5227L412.256 28.7955C412.181 28.4167 412.018 28.0758 411.768 27.7727C411.518 27.4621 411.188 27.2159 410.779 27.0341C410.378 26.8447 409.897 26.75 409.336 26.75C408.586 26.75 407.953 26.9091 407.438 27.2273C406.923 27.5379 406.666 27.9545 406.666 28.4773C406.666 28.8939 406.832 29.2462 407.166 29.5341C407.499 29.822 408.071 30.053 408.881 30.2273L412.041 30.8636C413.738 31.2121 415.003 31.7727 415.836 32.5455C416.669 33.3182 417.086 34.3333 417.086 35.5909C417.086 36.7348 416.749 37.7386 416.075 38.6023C415.408 39.4659 414.491 40.1402 413.325 40.625C412.166 41.1023 410.828 41.3409 409.313 41.3409C407.003 41.3409 405.162 40.8598 403.791 39.8977C402.427 38.928 401.628 37.6098 401.393 35.9432L406.154 35.6932C406.298 36.3977 406.647 36.9356 407.2 37.3068C407.753 37.6705 408.461 37.8523 409.325 37.8523C410.173 37.8523 410.855 37.6894 411.37 37.3636C411.893 37.0303 412.158 36.6023 412.166 36.0795C412.158 35.6402 411.972 35.2803 411.609 35C411.245 34.7121 410.685 34.4924 409.927 34.3409L406.904 33.7386C405.2 33.3977 403.931 32.8068 403.097 31.9659C402.272 31.125 401.859 30.053 401.859 28.75C401.859 27.6288 402.162 26.6629 402.768 25.8523C403.381 25.0417 404.241 24.4167 405.347 23.9773C406.461 23.5379 407.764 23.3182 409.256 23.3182C411.461 23.3182 413.196 23.7841 414.461 24.7159C415.734 25.6477 416.476 26.9167 416.688 28.5227ZM445.606 25.875H440.628C440.537 25.2311 440.352 24.6591 440.071 24.1591C439.791 23.6515 439.431 23.2197 438.992 22.8636C438.553 22.5076 438.045 22.2348 437.469 22.0455C436.901 21.8561 436.284 21.7614 435.617 21.7614C434.412 21.7614 433.363 22.0606 432.469 22.6591C431.575 23.25 430.882 24.1136 430.39 25.25C429.897 26.3788 429.651 27.75 429.651 29.3636C429.651 31.0227 429.897 32.4167 430.39 33.5455C430.89 34.6742 431.587 35.5265 432.481 36.1023C433.375 36.678 434.409 36.9659 435.583 36.9659C436.242 36.9659 436.852 36.8788 437.412 36.7045C437.981 36.5303 438.484 36.2765 438.924 35.9432C439.363 35.6023 439.727 35.1894 440.015 34.7045C440.31 34.2197 440.515 33.6667 440.628 33.0455L445.606 33.0682C445.477 34.1364 445.155 35.1667 444.64 36.1591C444.132 37.1439 443.446 38.0265 442.583 38.8068C441.727 39.5795 440.704 40.1932 439.515 40.6477C438.333 41.0947 436.996 41.3182 435.503 41.3182C433.428 41.3182 431.571 40.8485 429.935 39.9091C428.306 38.9697 427.018 37.6098 426.071 35.8295C425.132 34.0492 424.662 31.8939 424.662 29.3636C424.662 26.8258 425.14 24.6667 426.094 22.8864C427.049 21.1061 428.344 19.75 429.981 18.8182C431.617 17.8788 433.458 17.4091 435.503 17.4091C436.852 17.4091 438.102 17.5985 439.253 17.9773C440.412 18.3561 441.439 18.9091 442.333 19.6364C443.227 20.3561 443.954 21.2386 444.515 22.2841C445.083 23.3295 445.446 24.5265 445.606 25.875ZM452.604 17.7273V41H447.763V17.7273H452.604ZM466.395 33.5682V23.5455H471.236V41H466.588V37.8295H466.406C466.012 38.8523 465.357 39.6742 464.44 40.2955C463.531 40.9167 462.422 41.2273 461.111 41.2273C459.944 41.2273 458.918 40.9621 458.031 40.4318C457.145 39.9015 456.452 39.1477 455.952 38.1705C455.459 37.1932 455.209 36.0227 455.202 34.6591V23.5455H460.043V33.7955C460.05 34.8258 460.327 35.6402 460.872 36.2386C461.418 36.8371 462.149 37.1364 463.065 37.1364C463.649 37.1364 464.194 37.0038 464.702 36.7386C465.209 36.4659 465.618 36.0644 465.929 35.5341C466.247 35.0038 466.403 34.3485 466.395 33.5682ZM473.919 41V17.7273H478.76V26.4773H478.908C479.12 26.0076 479.427 25.5303 479.828 25.0455C480.237 24.553 480.767 24.1439 481.419 23.8182C482.078 23.4848 482.896 23.3182 483.874 23.3182C485.146 23.3182 486.32 23.6515 487.396 24.3182C488.472 24.9773 489.332 25.9735 489.976 27.3068C490.62 28.6326 490.942 30.2955 490.942 32.2955C490.942 34.2424 490.627 35.8864 489.999 37.2273C489.377 38.5606 488.529 39.572 487.453 40.2614C486.385 40.9432 485.188 41.2841 483.862 41.2841C482.923 41.2841 482.124 41.1288 481.464 40.8182C480.813 40.5076 480.279 40.1174 479.862 39.6477C479.445 39.1705 479.127 38.6894 478.908 38.2045H478.692V41H473.919ZM478.658 32.2727C478.658 33.3106 478.802 34.2159 479.089 34.9886C479.377 35.7614 479.794 36.3636 480.339 36.7955C480.885 37.2197 481.548 37.4318 482.328 37.4318C483.116 37.4318 483.783 37.2159 484.328 36.7841C484.874 36.3447 485.286 35.7386 485.567 34.9659C485.855 34.1856 485.999 33.2879 485.999 32.2727C485.999 31.2652 485.858 30.3788 485.578 29.6136C485.298 28.8485 484.885 28.25 484.339 27.8182C483.794 27.3864 483.124 27.1705 482.328 27.1705C481.54 27.1705 480.874 27.3788 480.328 27.7955C479.79 28.2121 479.377 28.803 479.089 29.5682C478.802 30.3333 478.658 31.2348 478.658 32.2727Z" fill="white"/>
<defs>
<clipPath id="clip0_49_7">
<rect width="144" height="34" fill="white" transform="translate(0 12)"/>
</clipPath>
</defs>
</svg>
